<svg width="32" height="35" viewBox="0 0 32 35" fill="none" xmlns="http://www.w3.org/2000/svg">
<path d="M18.5583 3.68163L17.8428 1.37825C17.5724 0.494874 16.7023 -0.0876131 15.7657 0.0108255L1.75602 1.4833C0.682855 1.5961 -0.102465 2.57061 0.0108664 3.64889L3.10172 33.0564C3.21505 34.1347 4.18582 34.9246 5.25899 34.8118C6.33215 34.699 7.11747 33.7245 7.00414 32.6462L5.7678 20.8832L16.6946 19.7348L17.4101 22.0382C17.6826 22.9411 18.5506 23.504 19.4872 23.4056L29.5945 22.3433C30.6676 22.2305 31.4529 21.256 31.3396 20.1777L29.6912 4.49368C29.5778 3.4154 28.6071 2.62546 27.5339 2.73826L18.5583 3.68163Z" fill="url(#paint0_linear_16_3)"/>
<defs>
<linearGradient id="paint0_linear_16_3" x1="14.4389" y1="0.15028" x2="17.9419" y2="33.4788" gradientUnits="userSpaceOnUse">
<stop stop-color="white"/>
<stop offset="1" stop-color="white" stop-opacity="0.5"/>
</linearGradient>
</defs>
</svg>
