<svg width="400" height="400" viewBox="0 0 400 400" fill="none" xmlns="http://www.w3.org/2000/svg">
<g clip-path="url(#clip0_1347_10)">
<rect width="400" height="400" rx="100" fill="white"/>
<rect x="-50" y="-50" width="500" height="500" fill="#F0B342"/>
<path d="M202.157 82.5764C212.238 81.5169 221.625 87.7625 224.573 97.3366L227.124 105.547L278.134 100.185C289.769 98.9623 300.185 107.491 301.404 119.083L312.046 220.342C313.264 231.934 304.849 242.442 293.214 243.664L227.96 250.523C217.97 251.573 208.532 245.548 205.545 235.762L205.545 235.763L202.995 227.553L147.839 233.35L154.933 300.84C156.151 312.432 147.736 322.94 136.102 324.163C124.467 325.386 114.051 316.857 112.832 305.265L92.8769 115.406C91.6587 103.814 100.074 93.3057 111.709 92.0829L202.157 82.5764Z" fill="#FFFBF3" stroke="#874800" stroke-width="17"/>
</g>
<defs>
<clipPath id="clip0_1347_10">
<rect width="400" height="400" rx="100" fill="white"/>
</clipPath>
</defs>
</svg>
